<?xml version="1.0" encoding="UTF-8"?>
<svg xmlns="http://www.w3.org/2000/svg" width="1200" height="630" viewBox="0 0 1200 630" role="img" aria-labelledby="title desc">
  <title id="title">Minddeck | NinjaTom Apps</title>
  <desc id="desc">MindDeck public marketing support and privacy site</desc>
  <defs>
    <linearGradient id="bg" x1="0" x2="1" y1="0" y2="1">
      <stop offset="0" stop-color="#05070d"/>
      <stop offset="0.52" stop-color="#07111d"/>
      <stop offset="1" stop-color="#0b0820"/>
    </linearGradient>
    <radialGradient id="glow" cx="74%" cy="18%" r="62%">
      <stop offset="0" stop-color="#7DD3FC" stop-opacity="0.48"/>
      <stop offset="0.42" stop-color="#7DD3FC" stop-opacity="0.12"/>
      <stop offset="1" stop-color="#7DD3FC" stop-opacity="0"/>
    </radialGradient>
    <filter id="softShadow" x="-20%" y="-20%" width="140%" height="140%">
      <feDropShadow dx="0" dy="28" stdDeviation="22" flood-color="#000000" flood-opacity="0.42"/>
    </filter>
  </defs>
  <rect width="1200" height="630" fill="url(#bg)"/>
  <rect width="1200" height="630" fill="url(#glow)"/>
  <path d="M760 86c146-42 284-4 372 92" fill="none" stroke="#7DD3FC" stroke-opacity="0.28" stroke-width="2"/>
  <path d="M700 534c168 32 308-4 426-108" fill="none" stroke="#2ad4ff" stroke-opacity="0.15" stroke-width="2"/>
  <g transform="translate(72 64)">
    <g transform="translate(0 0)">
      <path d="M0 36C22 0 62-9 103 6c-7 26-26 55-55 74C26 94 3 103 0 104Z" fill="#7DD3FC"/>
      <path d="M20 39c18-22 45-29 75-20-9 20-26 38-49 50-12 6-23 10-33 12V52Z" fill="#f7f4f0"/>
      <circle cx="43" cy="49" r="6" fill="#05070d"/>
      <circle cx="65" cy="43" r="6" fill="#05070d"/>
    </g>
    <text x="132" y="55" fill="#f7f4f0" font-family="-apple-system, BlinkMacSystemFont, 'Segoe UI', sans-serif" font-size="38" font-weight="820">NinjaTom <tspan fill="#7DD3FC">Apps</tspan></text>
  </g>
  <g filter="url(#softShadow)" transform="translate(70 174)">
    <rect x="0" y="0" width="1060" height="338" rx="34" fill="#0d1420" fill-opacity="0.88" stroke="#a6badc" stroke-opacity="0.18"/>
    <rect x="34" y="34" width="156" height="156" rx="30" fill="#7DD3FC" fill-opacity="0.16" stroke="#7DD3FC" stroke-opacity="0.42"/>
    <text x="112" y="126" text-anchor="middle" fill="#f7f4f0" font-family="-apple-system, BlinkMacSystemFont, 'Segoe UI', sans-serif" font-size="64" font-weight="900">M</text>
    <text x="226" y="92" fill="#f7f4f0" font-family="-apple-system, BlinkMacSystemFont, 'Segoe UI', sans-serif" font-size="64" font-weight="900" letter-spacing="0"><tspan x="226" dy="0">Minddeck</tspan></text>
    <text x="226" y="164" fill="#b8c0cf" font-family="-apple-system, BlinkMacSystemFont, 'Segoe UI', sans-serif" font-size="28" font-weight="520"><tspan x="226" dy="0">MindDeck public marketing support and privacy</tspan><tspan x="226" dy="40">site</tspan></text>
    <g transform="translate(226 268)">
      <g transform="translate(0 0)"><rect width="118" height="34" rx="10" fill="#7DD3FC" fill-opacity="0.14" stroke="#7DD3FC" stroke-opacity="0.35"/><text x="17" y="23" fill="#f7f4f0" font-family="-apple-system, BlinkMacSystemFont, 'Segoe UI', sans-serif" font-size="16" font-weight="820">Project</text></g><g transform="translate(180 0)"><rect width="82" height="34" rx="10" fill="#7DD3FC" fill-opacity="0.14" stroke="#7DD3FC" stroke-opacity="0.35"/><text x="17" y="23" fill="#f7f4f0" font-family="-apple-system, BlinkMacSystemFont, 'Segoe UI', sans-serif" font-size="16" font-weight="820">Live</text></g>
    </g>
  </g>
  <text x="72" y="578" fill="#7f8797" font-family="-apple-system, BlinkMacSystemFont, 'Segoe UI', sans-serif" font-size="23" font-weight="680">ninjatomapps.com/projects/minddeck-site.html</text>
  <text x="1128" y="578" text-anchor="end" fill="#dcd3ff" font-family="-apple-system, BlinkMacSystemFont, 'Segoe UI', sans-serif" font-size="23" font-weight="760">Custom3D.Art / GitHub Pages</text>
</svg>
